# xmcd
#
# Track frame offsets: 
#        150
#        17995
#        38705
#        59177
#        79252
#        92822
#        108617
#        128090
#        146162
#        166137
#        182610
#        201637
#        225315
#        248045
#
# Disc length: 3704 seconds
#
# Revision: 0
# Processed by: cddbd v1.5.1PL0 Copyright (c) Steve Scherf et al.
# Submitted via: ExactAudioCopy v0.95a3
#
DISCID=c60e760e
DTITLE=Killing Floor - Zero Tolerance
DYEAR=2004
DGENRE=Blues
TTITLE0=Burnout
TTITLE1=Prozac Blues
TTITLE2=Calm Down
TTITLE3=Sperm Bandit
TTITLE4=The Big Issue
TTITLE5=Strange Love
TTITLE6=Zero Tolerance
TTITLE7=Run On
TTITLE8=Iron Ewe
TTITLE9=What Is It About You?
TTITLE10=Road Of Diamonds
TTITLE11=The Radnor Rumble
TTITLE12=Fred McDowell
TTITLE13=Bring It On Home
EXTD=
EXTT0=
EXTT1=
EXTT2=
EXTT3=
EXTT4=
EXTT5=
EXTT6=
EXTT7=
EXTT8=
EXTT9=
EXTT10=
EXTT11=
EXTT12=
EXTT13=
PLAYORDER=
